<svg id="Memento-MCP-Logo" xmlns="http://www.w3.org/2000/svg" viewBox="0 0 16 16" height="96" width="96"><desc>Memento MCP Logo</desc><defs></defs><path d="m11.2523 5.8184 -2.99415 -1.75c-0.0797 -0.04665 -0.16905 -0.06935 -0.2582 -0.06835 -0.08495 0.001 -0.1697 0.0237 -0.24575 0.06785l-3.00585 1.75c-0.1538 0.0896 -0.2484 0.25415 -0.2484 0.43215v3.5c0 0.178 0.0946 0.34255 0.2484 0.43215l3.00585 1.75c0.07775 0.04515 0.1588 0.06785 0.24575 0.06785 0.08715 0 0.1802 -0.0227 0.2582 -0.06835l2.99415 -1.75c0.15345 -0.0896 0.2477 -0.2539 0.2477 -0.43165v-3.5c0 -0.17775 -0.09425 -0.34205 -0.2477 -0.43165Zm-3.24695 -0.7395 2.0038 1.17115 -2.0038 1.17115 -2.0116 -1.17115 2.0116 -1.17115ZM5.5 7.11965l2 1.16455v2.34275l-2 -1.16455v-2.34275Zm3 3.51245v-2.3418l2 -1.16895v2.3418l-2 1.16895Z" fill="#777777" stroke-width="0.5" stroke="#777777"></path><path d="M8 15.5c-0.08705 0 -0.17405 -0.0227 -0.25195 -0.0681l-6 -3.5C1.5945 11.8423 1.5 11.67785 1.5 11.5V4.5c0 -0.17785 0.0945 -0.3423 0.24805 -0.4319l6 -3.5C7.82595 0.5227 7.91295 0.5 8 0.5s0.17405 0.0227 0.25195 0.0681l5.5 3.2083 -0.5039 0.86375L8 1.5788 2.5 4.7871v6.42565l5.5 3.2083 5.5 -3.2083v-3.71285h1v4c0 0.17785 -0.0945 0.3423 -0.24805 0.4319l-6 3.5c-0.0779 0.0454 -0.1649 0.0681 -0.25195 0.0681Z" fill="#777777" stroke-width="0.5" stroke="#777777"></path><path id="_Transparent_Rectangle_" d="M0 0h16v16H0Z" fill="none" stroke-width="0.5"></path></svg> 